<svg xmlns="http://www.w3.org/2000/svg" width="24" height="24" viewBox="0 0 300 300"><path fill="#cccccc" d="M293.75,56.25H275V37.5c0-3.456-2.794-6.25-6.25-6.25h-100c-3.456,0-6.25,2.794-6.25,6.25v31.25H150V62.5 c0-3.456-2.794-6.25-6.25-6.25h-87.5c-3.456,0-6.25,2.794-6.25,6.25v6.25H6.25C2.794,68.75,0,71.544,0,75v150 c0,3.456,2.794,6.25,6.25,6.25H50v6.25c0,3.456,2.794,6.25,6.25,6.25h87.5c3.456,0,6.25-2.794,6.25-6.25v-6.25h12.5v31.25 c0,3.456,2.794,6.25,6.25,6.25h100c3.456,0,6.25-2.794,6.25-6.25v-18.75h18.75c3.456,0,6.25-2.794,6.25-6.25v-175 C300,59.044,297.206,56.25,293.75,56.25z M12.5,218.75V81.25H50v137.5H12.5z M137.5,231.25h-75V225V75v-6.25h75V231.25z M150,218.75V81.25h12.5v137.5H150z M262.5,256.25H175V43.75h87.5V62.5v175V256.25z M287.5,231.25H275V68.75h12.5V231.25z"/><path fill="#cccccc" d="M237.5,68.75H200c-3.456,0-6.25,2.794-6.25,6.25s2.794,6.25,6.25,6.25h37.5c3.456,0,6.25-2.794,6.25-6.25 S240.956,68.75,237.5,68.75z"/><path fill="#cccccc" d="M237.5,93.75H200c-3.456,0-6.25,2.794-6.25,6.25s2.794,6.25,6.25,6.25h37.5c3.456,0,6.25-2.794,6.25-6.25 S240.956,93.75,237.5,93.75z"/><path fill="#cccccc" d="M237.5,118.75H200c-3.456,0-6.25,2.794-6.25,6.25s2.794,6.25,6.25,6.25h37.5c3.456,0,6.25-2.794,6.25-6.25 S240.956,118.75,237.5,118.75z"/><path fill="#cccccc" d="M237.5,143.75H200c-3.456,0-6.25,2.794-6.25,6.25s2.794,6.25,6.25,6.25h37.5c3.456,0,6.25-2.794,6.25-6.25 S240.956,143.75,237.5,143.75z"/><path fill="#cccccc" d="M237.5,168.75H200c-3.456,0-6.25,2.794-6.25,6.25s2.794,6.25,6.25,6.25h37.5c3.456,0,6.25-2.794,6.25-6.25 S240.956,168.75,237.5,168.75z"/><path fill="#cccccc" d="M237.5,193.75H200c-3.456,0-6.25,2.794-6.25,6.25s2.794,6.25,6.25,6.25h37.5c3.456,0,6.25-2.794,6.25-6.25 S240.956,193.75,237.5,193.75z"/><path fill="#cccccc" d="M237.5,218.75H200c-3.456,0-6.25,2.794-6.25,6.25s2.794,6.25,6.25,6.25h37.5c3.456,0,6.25-2.794,6.25-6.25 S240.956,218.75,237.5,218.75z"/><rect fill="#cccccc" x="75" y="81.25" width="50" height="12.5"/><rect fill="#cccccc" x="75" y="106.25" width="50" height="12.5"/><rect fill="#cccccc" x="75" y="131.25" width="50" height="12.5"/><rect fill="#cccccc" x="75" y="156.25" width="50" height="12.5"/><rect fill="#cccccc" x="75" y="181.25" width="50" height="12.5"/><rect fill="#cccccc" x="75" y="206.25" width="50" height="12.5"/></svg>
