<svg aria-hidden="true" class="pswp__icn" viewBox="0 0 32 32" width="32" height="32">
  <!-- duplicate the paths for adding strokes -->
  <use class="pswp__icn-shadow" xlink:href="#pswp__icn-fullscreen-exit"/>
  <use class="pswp__icn-shadow" xlink:href="#pswp__icn-fullscreen-request"/>
  <!-- toggle full-screen mode icon path (id="pswp__icn-fullscreen-request") -->
  <path d="M8 8v6.047h2.834v-3.213h3.213V8h-3.213zm9.953 0v2.834h3.213v3.213H24V8h-2.834zM8 17.953V24h6.047v-2.834h-3.213v-3.213zm13.166 0v3.213h-3.213V24H24v-6.047z" id="pswp__icn-fullscreen-request"/>
  <!-- exit full-screen mode icon path (id="pswp__icn-fullscreen-exit") -->
  <path d="M11.213 8v3.213H8v2.834h6.047V8zm6.74 0v6.047H24v-2.834h-3.213V8zM8 17.953v2.834h3.213V24h2.834v-6.047h-2.834zm9.953 0V24h2.834v-3.213H24v-2.834h-3.213z" id="pswp__icn-fullscreen-exit" style="display:none"/>
</svg>
