<svg width="24" height="24" xmlns="http://www.w3.org/2000/svg"><path fill="#cccccc" stroke="null" id="svg_2" d="m20.84383,3.39692l-3.76424,0l0,-0.56662c0,-0.31721 -0.25727,-0.57447 -0.57447,-0.57447s-0.57447,0.25727 -0.57447,0.57447l0,0.56662l-3.35617,0l0,-0.56662c0,-0.31721 -0.25727,-0.57447 -0.57447,-0.57447s-0.57447,0.25727 -0.57447,0.57447l0,0.56662l-3.21351,0l0,-0.56662c0,-0.31721 -0.25727,-0.57447 -0.57447,-0.57447s-0.57447,0.25727 -0.57447,0.57447l0,0.56662l-3.9068,0c-0.31721,0 -0.57447,0.25727 -0.57447,0.57447l0,12.98042c0,0.31721 0.25727,0.57447 0.57447,0.57447l3.52593,0c0.56499,2.41413 2.73402,4.21788 5.31781,4.21788s4.75281,-1.80385 5.31781,-4.21788l3.52593,0c0.31721,0 0.57447,-0.25727 0.57447,-0.57447l0,-12.98042c0.0001,-0.31721 -0.25708,-0.57447 -0.57438,-0.57447zm-13.78076,1.14895l0,0.51913c0,0.31721 0.25727,0.57447 0.57447,0.57447s0.57447,-0.25727 0.57447,-0.57447l0,-0.51913l3.21351,0l0,0.51913c0,0.31721 0.25727,0.57447 0.57447,0.57447s0.57447,-0.25727 0.57447,-0.57447l0,-0.51913l3.35617,0l0,0.51913c0,0.31721 0.25727,0.57447 0.57447,0.57447s0.57447,-0.25727 0.57447,-0.57447l0,-0.51913l3.18976,0l0,2.34921l-16.53862,0l0,-2.34921l3.33233,0zm4.93693,16.04936c-2.37851,0 -4.31363,-1.93511 -4.31363,-4.31363s1.93511,-4.31363 4.31363,-4.31363s4.31363,1.93502 4.31363,4.31363s-1.93502,4.31363 -4.31363,4.31363zm5.46018,-4.21788c0.00057,-0.03198 0.00239,-0.06367 0.00239,-0.09575c0,-3.01206 -2.45051,-5.46257 -5.46257,-5.46257s-5.46257,2.45051 -5.46257,5.46257c0,0.03207 0.00191,0.06377 0.00239,0.09575l-2.80918,0l0,-8.33322l16.53862,0l0,8.33322l-2.80908,0z"/><path fill="#cccccc" stroke="null" id="svg_3" d="m12.57447,16.42656l0,-2.77911c0,-0.31721 -0.25727,-0.57447 -0.57447,-0.57447s-0.57447,0.25727 -0.57447,0.57447l0,3.01714c0,0.15233 0.06051,0.29844 0.16823,0.40625l1.32033,1.32043c0.11221,0.11212 0.25918,0.16823 0.40625,0.16823c0.14697,0 0.29403,-0.05611 0.40625,-0.16823c0.22433,-0.22433 0.22433,-0.58807 0,-0.8124l-1.15211,-1.1523z"/></svg>
